<svg width="21" height="21" viewBox="0 0 21 21" fill="none" xmlns="http://www.w3.org/2000/svg">
<path d="M13.1408 12.9377C13.1408 15.7325 10.8697 18 8.07042 18C5.27113 18 3 15.7325 3 12.9377C3 10.1429 5.27113 7.87539 8.07042 7.87539C10.8697 7.87539 13.1408 10.1429 13.1408 12.9377ZM5.28286 16.2305C5.26526 15.8731 5.09507 15.5392 4.81338 15.3136C4.37324 14.9591 4.11796 14.423 4.11796 13.8576C4.11796 13.84 4.11796 13.8224 4.11796 13.8049C4.11796 13.755 4.12383 13.7023 4.12969 13.6496C4.13556 13.5969 4.14437 13.547 4.15317 13.4972C4.16197 13.4474 4.17371 13.3976 4.18838 13.3508C4.20305 13.3039 4.21772 13.2541 4.23533 13.2072C4.25293 13.1603 4.27347 13.1135 4.29401 13.0695C4.31455 13.0256 4.33803 12.9816 4.3615 12.9377C4.38498 12.8938 4.41138 12.8527 4.44073 12.8117C4.47007 12.7707 4.49648 12.7326 4.52876 12.6945C4.56103 12.6565 4.59038 12.6184 4.62559 12.5832C4.6608 12.5481 4.69308 12.5129 4.72829 12.4807C4.74589 12.466 4.7635 12.4514 4.77817 12.4367C4.79284 12.4221 4.81338 12.4074 4.83099 12.3928L4.84272 12.384L4.86913 12.3635L4.89261 12.3459C5.10974 12.1701 5.23298 11.9065 5.23298 11.6282C5.23298 11.1448 4.85739 10.7434 4.37324 10.7083C3.27582 12.5246 3.66021 14.8654 5.28286 16.2305ZM8.30223 9.78548C8.24941 9.7181 8.17019 9.67415 8.08509 9.66536C8.06455 9.66243 8.04108 9.66243 8.01761 9.66243C7.92664 9.66536 7.83568 9.68001 7.74765 9.70931C7.40728 9.81477 7.02876 9.8675 6.77934 9.9261L6.7412 9.93488C6.6473 9.96125 6.58275 10.0433 6.58275 10.14C6.58275 10.1605 6.58568 10.1839 6.59448 10.2044C6.59448 10.2044 6.59448 10.2073 6.59742 10.2073C6.60035 10.2161 6.60329 10.2249 6.60915 10.2337C6.60915 10.2366 6.61209 10.2396 6.61502 10.2425C6.61796 10.2483 6.62089 10.2542 6.62383 10.263C6.66491 10.3538 6.70892 10.4417 6.7588 10.5296C6.82336 10.6468 6.89378 10.761 6.973 10.8723C7.01115 10.9251 7.05223 10.9749 7.09624 11.0218C7.11678 11.0452 7.14026 11.0657 7.16373 11.0862C7.19014 11.1155 7.22535 11.136 7.2635 11.1477C7.27523 11.1507 7.28697 11.1507 7.29577 11.1507C7.33099 11.1507 7.36326 11.1419 7.39261 11.1272C7.51878 11.0745 7.61854 10.9778 7.71244 10.887C7.92664 10.6761 8.1027 10.4388 8.27582 10.1985C8.29343 10.1751 8.31103 10.1517 8.32864 10.1253C8.34331 10.1077 8.35505 10.0872 8.36385 10.0667C8.36385 10.0638 8.36678 10.0638 8.36678 10.0609C8.38732 9.97883 8.35211 9.85872 8.30223 9.78548ZM12.3897 12.9377C12.3897 11.7336 11.885 10.5852 10.9988 9.77083L10.2183 10.5501H10.7201C11.436 10.5501 12.017 11.1272 12.017 11.842C12.017 12.5012 11.5211 13.0578 10.8638 13.1281C10.8198 13.134 10.7729 13.1369 10.7259 13.1369C10.5734 13.134 10.4208 13.1105 10.2741 13.0695L10.2183 13.0549C10.1332 13.0344 10.0481 13.0197 9.96303 13.0021C9.91315 12.9934 9.86326 12.9846 9.81338 12.9729C9.74002 12.9582 9.66667 12.9436 9.59331 12.9289L9.46714 12.9055L9.23826 12.8615L9.22359 12.8586C9.17958 13.1369 9.11209 13.7111 9.11209 14.6456C9.11209 14.9738 9.37911 15.2403 9.70775 15.2403C9.9777 15.2403 10.2154 15.0587 10.2858 14.795C10.2887 14.7687 10.2946 14.7452 10.2975 14.7277L10.3005 14.7189L10.3034 14.7101C10.3063 14.7013 10.3063 14.6954 10.3093 14.6867C10.5293 13.7756 11.4478 13.2131 12.3603 13.4299C12.3809 13.2687 12.3897 13.1047 12.3897 12.9377ZM16.5211 6.00047C16.5241 5.7954 16.6913 5.62841 16.8967 5.62548H18C17.7917 3.98199 16.2864 2.81602 14.6403 3.02402C13.7072 3.1412 12.8856 3.68903 12.4131 4.50053H14.2676C14.4759 4.50053 14.6432 4.66751 14.6432 4.87551C14.6432 5.08351 14.4759 5.2505 14.2676 5.2505H12.108C12.0757 5.37354 12.0522 5.49951 12.0376 5.62548H13.5164C13.7248 5.62548 13.892 5.79247 13.892 6.00047C13.892 6.20847 13.7248 6.37545 13.5164 6.37545H12.0376C12.243 8.01894 13.7453 9.18491 15.3914 8.97984C16.3245 8.86266 17.1491 8.31483 17.6215 7.50041H16.1455C15.9372 7.50041 15.77 7.33342 15.77 7.12542C15.7729 6.92035 15.9401 6.75337 16.1455 6.75044H17.9296C17.9589 6.6274 17.9853 6.50142 18 6.37545H16.8967C16.6884 6.37545 16.5211 6.20847 16.5211 6.00047ZM4.12676 5.2505C4.74883 5.2505 5.25352 4.74661 5.25352 4.12554C5.25352 3.50447 4.74883 3.00058 4.12676 3.00058C3.50469 3.00058 3 3.50447 3 4.12554C3 4.74661 3.50469 5.2505 4.12676 5.2505ZM16.5211 10.5003C15.8991 10.5003 15.3944 11.0042 15.3944 11.6252C15.3944 12.2463 15.8991 12.7502 16.5211 12.7502C17.1432 12.7502 17.6479 12.2463 17.6479 11.6252C17.6479 11.0042 17.1432 10.5003 16.5211 10.5003ZM8.8216 6.00047C9.13263 6.00047 9.38498 5.74852 9.38498 5.43799C9.38498 5.12745 9.13263 4.87551 8.8216 4.87551C8.51056 4.87551 8.25822 5.12745 8.25822 5.43799C8.25822 5.74852 8.51056 6.00047 8.8216 6.00047ZM14.831 15.0001C14.52 15.0001 14.2676 15.2521 14.2676 15.5626C14.2676 15.8731 14.52 16.1251 14.831 16.1251C15.142 16.1251 15.3944 15.8731 15.3944 15.5626C15.3944 15.2521 15.142 15.0001 14.831 15.0001Z" fill="#FAFAFA"/>
<rect x="1" y="1" width="19" height="19" rx="2" stroke="#FAFAFA" stroke-width="2"/>
</svg>
