<svg width="20" height="20" viewBox="0 0 20 20" fill="none" xmlns="http://www.w3.org/2000/svg">
<path d="M10 0C4.39254 0 0 4.39254 0 10C0 15.6075 4.39254 20 10 20C15.6075 20 20 15.6075 20 10C20 4.39254 15.6075 0 10 0ZM10 18.4375C9.7716 18.4375 9.54563 18.4286 9.3223 18.4117L12.3038 15.4303C12.6154 15.5795 12.9589 15.6584 13.3146 15.6584C13.9406 15.6584 14.5292 15.4146 14.9719 14.9719C15.692 14.2517 15.8442 13.1758 15.4293 12.3048L17.7339 10L16.6291 8.89516L14.3254 11.1989C14.0138 11.0498 13.6703 10.9709 13.3146 10.9709C12.6886 10.9709 12.1 11.2146 11.6573 11.6573C10.9371 12.3775 10.785 13.4534 11.1999 14.3244L7.46105 18.0632C4.21285 17.0722 1.85691 14.2119 1.58832 10.6777L6.68543 5.58059L5.58059 4.47574L1.72035 8.33594C2.47293 4.42793 5.83996 1.5625 10 1.5625C11.4961 1.5625 12.8893 1.93344 14.0956 2.58977L12.1146 4.57074C11.2436 4.15582 10.1677 4.30801 9.44754 5.02816C8.72738 5.74832 8.5752 6.82426 8.99016 7.69527L3.37086 13.3146L4.4757 14.4194L10.095 8.80012C10.4134 8.9518 10.759 9.02809 11.1048 9.02809C11.705 9.02809 12.3052 8.79965 12.7621 8.34273C13.4823 7.62258 13.6344 6.54664 13.2195 5.67563L15.4142 3.48094C17.2721 5.0166 18.4375 7.34703 18.4375 10C18.4375 14.7313 14.7313 18.4375 10 18.4375V18.4375ZM13.867 13.867C13.7194 14.0146 13.5232 14.0958 13.3145 14.0958C13.1059 14.0958 12.9097 14.0145 12.7621 13.867C12.4575 13.5624 12.4575 13.0668 12.7621 12.7621C12.9096 12.6146 13.1059 12.5333 13.3145 12.5333C13.5232 12.5333 13.7194 12.6146 13.867 12.7621C14.1716 13.0668 14.1716 13.5624 13.867 13.867V13.867ZM10.5524 6.13301C10.7047 5.9807 10.9048 5.90453 11.1048 5.90453C11.3049 5.90453 11.505 5.9807 11.6573 6.13301C11.9619 6.43762 11.9619 6.93324 11.6573 7.23785C11.3527 7.54246 10.857 7.54246 10.5524 7.23785C10.2478 6.93324 10.2478 6.43762 10.5524 6.13301V6.13301Z" fill="#FAFAFA"/>
<path d="M6.13086 14.9712L8.34024 12.7618L9.44493 13.8665L7.23555 16.0759L6.13086 14.9712Z" fill="#FAFAFA"/>
</svg>
